<?xml version="1.0" encoding="UTF-8" standalone="no"?>
<svg
   xmlns:dc="http://purl.org/dc/elements/1.1/"
   xmlns:cc="http://creativecommons.org/ns#"
   xmlns:rdf="http://www.w3.org/1999/02/22-rdf-syntax-ns#"
   xmlns:svg="http://www.w3.org/2000/svg"
   xmlns="http://www.w3.org/2000/svg"
   xmlns:sodipodi="http://sodipodi.sourceforge.net/DTD/sodipodi-0.dtd"
   xmlns:inkscape="http://www.inkscape.org/namespaces/inkscape"
   width="155"
   height="80.019989"
   viewBox="0 0 41.010371 21.171962"
   version="1.1"
   id="svg8"
   sodipodi:docname="nnc_logo.svg"
   inkscape:version="1.0.2 (394de47547, 2021-03-26)">
  <sodipodi:namedview
     pagecolor="#ffffff"
     bordercolor="#666666"
     borderopacity="1"
     objecttolerance="10"
     gridtolerance="10"
     guidetolerance="10"
     inkscape:pageopacity="0"
     inkscape:pageshadow="2"
     inkscape:window-width="1680"
     inkscape:window-height="976"
     id="namedview851"
     showgrid="false"
     inkscape:zoom="4.221818"
     inkscape:cx="124.50723"
     inkscape:cy="58.037005"
     inkscape:window-x="0"
     inkscape:window-y="0"
     inkscape:window-maximized="1"
     inkscape:current-layer="g879"
     inkscape:document-rotation="0" />
  <defs
     id="defs2" />
  <metadata
     id="metadata5">
    <rdf:RDF>
      <cc:Work
         rdf:about="">
        <dc:format>image/svg+xml</dc:format>
        <dc:type
           rdf:resource="http://purl.org/dc/dcmitype/StillImage" />
        <dc:title></dc:title>
      </cc:Work>
    </rdf:RDF>
  </metadata>
  <g
     id="g1087">
    <g
       id="g879"
       transform="matrix(0.2753303,0,0,0.2753303,0.47206032,0.02237053)"
       style="stroke-width:3.632">
      <path
         style="fill:#2f80ed;fill-opacity:1;stroke:none;stroke-width:14.7034;stroke-linecap:round;stroke-linejoin:round;stroke-miterlimit:4;stroke-dasharray:none;stroke-opacity:1"
         d="m 132.96121,26.23973 c -0.1783,-0.002 -0.31251,0.0125 -0.31251,0.45137 0,0.38068 0.10123,0.96949 0.24439,1.23151 h -0.32412 c -0.11257,0 -0.15538,0.091 -0.20321,0.18148 l -0.11105,0.2096 c -0.0522,0.0988 0.10582,0.19453 0.23686,0.19453 h 0.0525 c -0.009,0.0234 -0.0133,0.0483 -0.0133,0.0744 0,0.062 0.0247,0.11797 0.0643,0.15917 h -0.13336 c -0.12035,0 -0.21714,0.0969 -0.21714,0.21713 v 1.93743 a 7.1895014,7.1895014 0 0 0 -3.69365,1.52257 l -1.36458,-1.36458 c -0.0851,-0.085 -0.22221,-0.0854 -0.3073,-2.8e-4 l -0.0943,0.0941 c -8.3e-4,-0.0571 -0.0232,-0.11394 -0.0669,-0.15772 -0.0185,-0.0186 -0.04,-0.032 -0.0621,-0.0433 l 0.0372,-0.037 c 0.0927,-0.0926 0.13672,-0.27205 0.03,-0.30498 l -0.2267,-0.0699 c -0.0978,-0.0302 -0.19261,-0.0642 -0.27222,0.0155 l -0.22903,0.22931 c -0.084,-0.28652 -0.42919,-0.77476 -0.69837,-1.04394 -0.31024,-0.31023 -0.4157,-0.22605 -0.5398,-0.098 -0.0175,0.0183 -0.036,0.0375 -0.055,0.0566 -0.1528,0.15281 -0.31309,0.24032 0.0414,0.59488 0.26917,0.26917 0.75741,0.61434 1.04395,0.69838 l -0.22961,0.22932 c -0.0795,0.0796 -0.0446,0.17711 -0.0154,0.27193 l 0.0701,0.2267 c 0.0329,0.1069 0.21201,0.0631 0.3047,-0.0296 l 0.0374,-0.0376 c 0.0109,0.0222 0.0243,0.0438 0.0429,0.0624 0.0438,0.0438 0.10079,0.0658 0.15799,0.0669 l -0.0943,0.0939 c -0.0851,0.085 -0.0849,0.2222 3.1e-4,0.3073 l 1.36862,1.36863 a 7.1895014,7.1895014 0 0 0 -1.53157,3.68989 h -1.9322 c -0.12035,0 -0.21743,0.0969 -0.21743,0.21713 v 0.1334 c -0.0413,-0.0396 -0.0969,-0.0643 -0.15886,-0.0643 -0.0263,0 -0.0511,0.005 -0.0745,0.0139 l -2.8e-4,-0.0525 c -1e-5,-0.13103 -0.0957,-0.28913 -0.19454,-0.23686 l -0.20959,0.11102 c -0.0904,0.0477 -0.18148,0.0906 -0.18148,0.20322 v 0.32411 c -0.26202,-0.1432 -0.85115,-0.24439 -1.2318,-0.24439 -0.43875,0 -0.4539,0.13422 -0.4511,0.31251 6e-4,0.0254 8.3e-4,0.0519 8.3e-4,0.0788 0,0.21612 -0.0515,0.39137 0.44992,0.39137 0.38068,10e-6 0.96979,-0.10113 1.2318,-0.24439 v 0.32441 c 0,0.11254 0.0938,0.15685 0.18148,0.20322 l 0.20961,0.11073 c 0.0988,0.0522 0.19452,-0.10548 0.19452,-0.23656 v -0.0531 c 0.0234,0.008 0.0483,0.0138 0.0745,0.0138 0.062,0 0.11764,-0.025 0.15887,-0.0646 v 0.13339 c 0,0.12032 0.0971,0.21714 0.21743,0.21714 h 1.93772 a 7.1895014,7.1895014 0 0 0 1.52255,3.69366 l -1.36485,1.36488 c -0.0851,0.0852 -0.0854,0.22219 -3.1e-4,0.30727 l 0.0943,0.0943 c -0.0571,9e-4 -0.11388,0.0228 -0.15771,0.0667 -0.0185,0.0186 -0.0323,0.0401 -0.0433,0.0624 l -0.0372,-0.037 c -0.0926,-0.0926 -0.27233,-0.1367 -0.30527,-0.0299 l -0.0695,0.2267 c -0.0302,0.0979 -0.0642,0.19233 0.0154,0.27193 l 0.22932,0.22932 c -0.28652,0.084 -0.77478,0.42892 -1.04395,0.69808 -0.31024,0.31023 -0.22606,0.4157 -0.098,0.53981 0.0184,0.0177 0.0374,0.036 0.0564,0.055 0.15282,0.15281 0.24033,0.31312 0.59488,-0.0414 0.26918,-0.26915 0.61436,-0.75714 0.69838,-1.04365 l 0.22932,0.22932 c 0.0796,0.0795 0.17713,0.0446 0.27193,0.0155 l 0.2267,-0.0698 c 0.1069,-0.033 0.0629,-0.21229 -0.0299,-0.30497 l -0.0374,-0.037 c 0.0223,-0.0111 0.0438,-0.0246 0.0623,-0.0433 0.0438,-0.0438 0.0658,-0.10058 0.0669,-0.1577 l 0.0939,0.0939 c 0.0851,0.085 0.2222,0.0852 0.30729,0 l 1.36892,-1.36893 a 7.1895014,7.1895014 0 0 0 3.68961,1.53157 v 1.93251 c 0,0.12031 0.0968,0.21741 0.21713,0.21741 h 0.13337 c -0.0397,0.0412 -0.0644,0.0969 -0.0644,0.15887 0,0.0263 0.005,0.051 0.0133,0.0745 h -0.0525 c -0.13108,0 -0.28912,0.0958 -0.23684,0.19454 l 0.11102,0.2096 c 0.0478,0.0904 0.0907,0.18147 0.20322,0.18147 h 0.32411 c -0.14319,0.26203 -0.24438,0.85112 -0.24438,1.23181 0,0.43875 0.13421,0.45388 0.31252,0.45108 0.0254,-5.9e-4 0.0519,-9e-4 0.0788,-9e-4 0.21612,0 0.39138,0.0515 0.39138,-0.44993 0,-0.38069 -0.10123,-0.96978 -0.24439,-1.23181 h 0.32441 c 0.11257,0 0.15684,-0.0938 0.20321,-0.18147 l 0.11074,-0.2096 c 0.0522,-0.0988 -0.10548,-0.19454 -0.23656,-0.19454 h -0.0527 c 0.009,-0.0234 0.0136,-0.0483 0.0136,-0.0745 0,-0.0619 -0.0247,-0.11768 -0.0645,-0.15886 h 0.13307 c 0.12036,0 0.21714,-0.0971 0.21714,-0.21743 v -1.93783 a 7.1895014,7.1895014 0 0 0 3.69365,-1.52255 l 1.36516,1.36515 c 0.0851,0.085 0.22191,0.085 0.30701,0 l 0.0939,-0.0942 c 8.2e-4,0.0571 0.0234,0.11421 0.0672,0.15798 0.0186,0.0186 0.04,0.0324 0.0623,0.0433 l -0.0374,0.037 c -0.0926,0.0926 -0.1367,0.27204 -0.0299,0.30497 l 0.22669,0.0699 c 0.0948,0.0292 0.19233,0.0642 0.27194,-0.0155 l 0.2293,-0.22931 c 0.084,0.28651 0.42892,0.77448 0.69809,1.04365 0.35456,0.35457 0.44236,0.19425 0.59517,0.0414 0.0192,-0.0192 0.0381,-0.0375 0.0564,-0.055 0.12799,-0.12408 0.21185,-0.22997 -0.0983,-0.5401 -0.26917,-0.26917 -0.75713,-0.61378 -1.04364,-0.6978 l 0.2293,-0.22931 c 0.0795,-0.0795 0.0455,-0.17411 0.0154,-0.27192 l -0.0699,-0.22672 c -0.0329,-0.1069 -0.2123,-0.0628 -0.30499,0.0299 l -0.0372,0.037 c -0.0109,-0.0222 -0.0246,-0.0434 -0.0433,-0.0619 -0.0438,-0.0438 -0.1008,-0.0658 -0.158,-0.0669 l 0.0943,-0.0945 c 0.0851,-0.085 0.0851,-0.22192 0,-0.30701 l -1.36892,-1.36892 a 7.1895014,7.1895014 0 0 0 1.53157,-3.6896 h 1.93278 c 0.12036,0 0.21715,-0.0969 0.21712,-0.21714 v -0.13311 c 0.0413,0.0396 0.0972,0.0643 0.15917,0.0643 0.0263,0 0.0511,-0.005 0.0745,-0.0139 v 0.0527 c 0,0.13102 0.0957,0.28881 0.19453,0.23657 l 0.2096,-0.11074 c 0.0876,-0.0464 0.18148,-0.0906 0.18148,-0.20321 v -0.32439 c 0.26202,0.14319 0.85084,0.24439 1.23151,0.24439 0.50143,0 0.45022,-0.17524 0.45022,-0.39137 2e-5,-0.027 2.9e-4,-0.0533 8.3e-4,-0.0788 h 3e-4 c 0.002,-0.17831 -0.0126,-0.31252 -0.45138,-0.31252 -0.38067,0 -0.9695,0.10113 -1.23151,0.24439 v -0.32411 c 0,-0.11255 -0.091,-0.15537 -0.18148,-0.20324 l -0.20966,-0.11102 c -0.0988,-0.0522 -0.19453,0.1057 -0.19453,0.23687 v 0.0525 c -0.0234,-0.008 -0.0483,-0.0138 -0.0745,-0.0138 -0.062,0 -0.11792,0.0247 -0.15916,0.0643 v -0.1334 c 0,-0.12032 -0.0968,-0.21713 -0.21714,-0.21713 h -1.93771 a 7.1895014,7.1895014 0 0 0 -1.52257,-3.69366 l 1.36487,-1.36487 c 0.0851,-0.0852 0.0851,-0.22191 0,-0.30701 l -0.0943,-0.0942 c 0.0571,-9e-4 0.11418,-0.0232 0.15799,-0.0669 0.0185,-0.0186 0.0324,-0.04 0.0433,-0.0624 l 0.0371,0.0374 c 0.0926,0.0926 0.27205,0.13643 0.30498,0.0296 l 0.0698,-0.2264 c 0.0293,-0.0948 0.0642,-0.19261 -0.0154,-0.27222 l -0.22931,-0.22968 c 0.28652,-0.084 0.77447,-0.42861 1.04365,-0.6978 0.35456,-0.35456 0.19426,-0.44236 0.0414,-0.59517 -0.0191,-0.0192 -0.0372,-0.038 -0.0548,-0.0565 -0.1241,-0.12811 -0.23012,-0.21225 -0.54037,0.098 -0.26917,0.26917 -0.61377,0.75713 -0.6978,1.04364 l -0.22931,-0.22902 c -0.0795,-0.0796 -0.17412,-0.0454 -0.27193,-0.0155 l -0.22671,0.0696 c -0.1069,0.0329 -0.0629,0.21229 0.03,0.30497 l 0.0372,0.037 c -0.0222,0.0111 -0.0435,0.0246 -0.0621,0.0433 -0.0438,0.0438 -0.0658,0.10112 -0.0669,0.15829 l -0.0945,-0.0945 c -0.0851,-0.085 -0.22189,-0.085 -0.307,0 l -1.36892,1.36893 a 7.1895014,7.1895014 0 0 0 -3.6896,-1.53158 v -1.93251 c 0,-0.12032 -0.0968,-0.21713 -0.21713,-0.21713 h -0.13308 c 0.0397,-0.0413 0.0644,-0.0973 0.0644,-0.15914 0,-0.0263 -0.005,-0.0511 -0.0136,-0.0745 h 0.0527 c 0.13109,0 0.28884,-0.0958 0.23657,-0.19451 l -0.11074,-0.20959 c -0.0464,-0.0876 -0.0907,-0.18148 -0.20322,-0.18148 h -0.3244 c 0.14319,-0.26202 0.24439,-0.85085 0.24439,-1.23152 0,-0.50143 -0.17527,-0.45021 -0.39138,-0.45021 -0.0269,0 -0.0534,-6e-4 -0.0788,-9.1e-4 z m -0.44065,5.73225 c -0.0692,0.21455 -0.10989,0.55399 -0.10989,1.09236 0,0.78118 0.0854,1.81589 0.22005,2.59029 a 2.4139933,2.4139933 0 0 0 -0.98131,0.40962 c -0.45235,-0.64314 -1.12442,-1.43661 -1.6774,-1.98961 -0.37907,-0.37908 -0.64723,-0.59047 -0.84767,-0.69373 a 6.0874614,6.0874614 0 0 1 3.39622,-1.40893 z m 1.0396,0 a 6.0874614,6.0874614 0 0 1 3.40231,1.40603 c -0.20109,0.102 -0.47063,0.31322 -0.85377,0.69636 -0.55267,0.55264 -1.22418,1.34542 -1.67651,1.98844 a 2.4139933,2.4139933 0 0 0 -0.98278,-0.40587 c 0.13485,-0.77464 0.22061,-1.81065 0.22061,-2.5926 0,-0.53838 -0.0406,-0.87781 -0.10986,-1.09236 z m -5.17508,2.13891 c 0.102,0.20118 0.3129,0.47089 0.69636,0.85434 0.5526,0.55262 1.34526,1.22418 1.98816,1.67652 a 2.4139933,2.4139933 0 0 0 -0.40587,0.98277 c -0.77454,-0.13478 -1.81046,-0.22061 -2.59232,-0.22061 -0.53834,0 -0.87774,0.0403 -1.09235,0.10962 a 6.0874614,6.0874614 0 0 1 1.40602,-3.40259 z m 9.30766,0.008 a 6.0874614,6.0874614 0 0 1 1.40892,3.39621 c -0.21456,-0.0692 -0.55373,-0.10962 -1.09207,-0.10962 -0.78118,0 -1.8159,0.0855 -2.59028,0.22003 a 2.4139933,2.4139933 0 0 0 -0.40964,-0.98132 c 0.64316,-0.45243 1.43658,-1.12464 1.98961,-1.67768 0.3791,-0.37909 0.59022,-0.64726 0.69346,-0.84766 z m -4.65238,2.49925 a 1.4169091,1.4169091 0 0 1 1.41676,1.41704 1.4169091,1.4169091 0 0 1 -1.41676,1.41676 1.4169091,1.4169091 0 0 1 -1.41705,-1.41676 1.4169091,1.4169091 0 0 1 1.41705,-1.41704 z m 2.37662,1.8261 c 0.77464,0.13491 1.81066,0.22061 2.59261,0.22061 0.53836,0 0.87752,-0.0406 1.09207,-0.1099 a 6.0874614,6.0874614 0 0 1 -1.40604,3.4023 c -0.10199,-0.20108 -0.31319,-0.47062 -0.69634,-0.85377 -0.55269,-0.55269 -1.34549,-1.22447 -1.98845,-1.6768 a 2.4139933,2.4139933 0 0 0 0.40615,-0.98248 z m -4.75557,5.8e-4 a 2.4139933,2.4139933 0 0 0 0.40963,0.98132 c -0.64313,0.45235 -1.43661,1.1244 -1.9896,1.67738 -0.37909,0.37909 -0.5902,0.64724 -0.69345,0.84769 a 6.0874614,6.0874614 0 0 1 -1.40893,-3.39623 c 0.21461,0.0692 0.55401,0.1099 1.09235,0.1099 0.78108,0 1.81571,-0.0855 2.59,-0.22003 z m 3.7699,1.55968 c 0.45235,0.64314 1.12439,1.43662 1.67739,1.98959 0.37908,0.37911 0.64726,0.59024 0.84768,0.69347 a 6.0874614,6.0874614 0 0 1 -3.39622,1.40892 c 0.0692,-0.2146 0.10987,-0.55399 0.10987,-1.09236 0,-0.78117 -0.0854,-1.81596 -0.22004,-2.59026 a 2.4139933,2.4139933 0 0 0 0.98133,-0.40936 z m -2.78278,9e-4 a 2.4139933,2.4139933 0 0 0 0.98278,0.40615 c -0.13484,0.77455 -0.22063,1.81047 -0.22063,2.59232 0,0.53837 0.0406,0.87775 0.10988,1.09235 a 6.0874614,6.0874614 0 0 1 -3.4023,-1.40601 c 0.20113,-0.102 0.4706,-0.31349 0.85376,-0.69664 0.55267,-0.55267 1.22419,-1.34532 1.67652,-1.98817 z"
         id="path873-3-9" />
      <g
         id="g1228"
         transform="translate(-195.91895,-151.87823)"
         style="fill:#333333;stroke-width:3.632">
        <path
           id="rect1193"
           style="fill:#333333;stroke-width:0.960965"
           d="m 197.77988,153.0181 h 4.91747 c 0.64939,0 1.17218,0.52279 1.17218,1.17218 0,0 -1.31501,23.9401 -1.31662,35.92221 -0.002,12.0707 1.31662,36.18816 1.31662,36.18816 0.0236,0.64896 -0.52279,1.17218 -1.17218,1.17218 h -4.91747 c -0.64939,0 -1.17218,-0.52279 -1.17218,-1.17218 0,0 1.50171,-24.10612 1.50005,-36.17472 -0.002,-11.98898 -1.50005,-35.93565 -1.50005,-35.93565 -0.0271,-0.64882 0.52279,-1.17218 1.17218,-1.17218 z" />
        <path
           id="rect1193-6"
           style="fill:#333333;stroke-width:0.960965"
           d="m 226.73829,153.0181 h 4.91747 c 0.64939,0 1.17218,0.52279 1.17218,1.17218 0,0 -1.31501,23.9401 -1.31662,35.92221 -0.002,12.0707 1.31662,36.18816 1.31662,36.18816 0.0236,0.64896 -0.52279,1.17218 -1.17218,1.17218 h -4.91747 c -0.64939,0 -1.17218,-0.52278 -1.17218,-1.17218 0,0 1.50171,-24.10612 1.50005,-36.17472 -0.002,-11.98898 -1.50005,-35.93565 -1.50005,-35.93565 -0.0271,-0.64882 0.52279,-1.17218 1.17218,-1.17218 z" />
        <path
           id="rect1193-7"
           style="fill:#333333;stroke-width:0.544905"
           d="m 230.48955,190.61303 -2.03337,2.10808 c -0.26853,0.27839 -0.67915,0.29758 -0.92068,0.043 0,0 -8.36051,-9.94806 -12.81643,-14.64563 -4.48887,-4.73235 -14.00421,-13.62105 -14.00421,-13.62105 -0.25116,-0.24424 -0.21982,-0.6836 0.0487,-0.96199 l 2.03339,-2.10808 c 0.26853,-0.27838 0.67915,-0.29757 0.92067,-0.043 0,0 8.34504,10.09318 12.83449,14.82326 4.4599,4.69885 13.98615,13.44342 13.98615,13.44342 0.25252,0.24273 0.2198,0.6836 -0.0487,0.96199 z" />
      </g>
      <g
         id="g1268"
         transform="translate(-196.72388,-150.83749)"
         style="fill:#333333;stroke-width:3.632">
        <path
           id="rect1193-3"
           style="fill:#333333;stroke-width:0.960965"
           d="m 250.3572,151.97736 h 4.91747 c 0.64939,0 1.17218,0.52279 1.17218,1.17218 0,0 -1.31501,23.9401 -1.31662,35.92221 -0.002,12.0707 1.31662,36.18816 1.31662,36.18816 0.0236,0.64896 -0.52279,1.17218 -1.17218,1.17218 h -4.91747 c -0.64939,0 -1.17218,-0.52279 -1.17218,-1.17218 0,0 1.50171,-24.10612 1.50005,-36.17472 -0.002,-11.98898 -1.50005,-35.93565 -1.50005,-35.93565 -0.0271,-0.64882 0.52279,-1.17218 1.17218,-1.17218 z" />
        <path
           id="rect1193-6-5"
           style="fill:#333333;stroke-width:0.960965"
           d="m 279.31561,151.97736 h 4.91747 c 0.64939,0 1.17218,0.52279 1.17218,1.17218 0,0 -1.31501,23.9401 -1.31662,35.92221 -0.002,12.0707 1.31662,36.18816 1.31662,36.18816 0.0236,0.64896 -0.52279,1.17218 -1.17218,1.17218 h -4.91747 c -0.64939,0 -1.17218,-0.52278 -1.17218,-1.17218 0,0 1.50171,-24.10612 1.50005,-36.17472 -0.002,-11.98898 -1.50005,-35.93565 -1.50005,-35.93565 -0.0271,-0.64882 0.52279,-1.17218 1.17218,-1.17218 z" />
        <path
           id="rect1193-7-6"
           style="fill:#333333;stroke-width:0.571186"
           d="m 283.35196,196.53171 -1.95195,2.37391 c -0.25778,0.31349 -0.67818,0.35946 -0.9426,0.10299 0,0 -9.22616,-10.08742 -14.10446,-14.81925 -4.91439,-4.76688 -15.25804,-13.6531 -15.25804,-13.6531 -0.27363,-0.24481 -0.26979,-0.7152 -0.012,-1.0287 l 1.95197,-2.37391 c 0.25778,-0.31348 0.67818,-0.35944 0.94259,-0.10299 0,0 9.21964,10.24312 14.13446,15.00753 4.88248,4.73295 15.22804,13.46482 15.22804,13.46482 0.27493,0.24312 0.26977,0.71521 0.012,1.0287 z" />
      </g>
      <path
         id="rect1193-2"
         style="fill:#333333;stroke-width:3.632"
         d="m 518.1543,2.2226562 c -0.82344,-0.00639 -1.6391,0.3075425 -2.23828,0.9589844 0,0 -43.26981,49.0453484 -66.375,72.1582034 -16.72169,16.726302 -46.70085,43.734076 -62.36329,57.714846 -0.48764,0.15304 -0.95048,0.40946 -1.33398,0.79297 l -3.61914,3.61914 c -2.32619,2.06545 -5.30273,4.70898 -5.30273,4.70898 -0.42648,0.42649 -0.69617,0.9449 -0.83204,1.48828 -0.95375,1.25421 -0.87108,3.03319 0.27539,4.17969 0,0 49.35986,43.57026 72.61915,66.83594 23.10515,23.11286 66.375,72.1582 66.375,72.1582 1.19837,1.30289 3.26782,1.25175 4.51953,0 l 9.47851,-9.47851 c 1.25171,-1.25172 1.25171,-3.26586 0,-4.51758 0,0 -48.68042,-43.61047 -71.7793,-66.70313 -16.3029,-16.29747 -42.48351,-44.95086 -56.86132,-60.82226 14.24789,-15.73427 40.91049,-44.93355 57.41797,-61.435551 23.09887,-23.092657 71.77929,-66.703125 71.77929,-66.703125 1.25171,-1.251718 1.25174,-3.265859 0,-4.517578 L 520.43555,3.1816406 C 519.80968,2.5557679 518.97773,2.2290485 518.1543,2.2226562 Z"
         transform="matrix(0.26458341,0,0,0.26458341,-1.0307106e-4,0)" />
      <g
         id="g1030"
         transform="translate(-196.72388,-150.83749)"
         style="opacity:1;fill:#2f80ed;fill-opacity:1;stroke-width:3.63247;stroke-miterlimit:4;stroke-dasharray:none">
        <path
           id="path1024"
           style="fill:#2f80ed;fill-opacity:1;stroke-width:13.729;stroke-miterlimit:4;stroke-dasharray:none"
           d="m 330.42188,164.06055 -17.6425,14.00687 c -0.61463,24.03913 -5.05086,103.21383 -5.05086,103.21383 0,2.45442 1.9753,4.42969 4.42968,4.42969 h 18.58594 c 2.45439,0 4.51888,-1.97693 4.42969,-4.42969 0,0 -3.78455,-69.23022 -4.75195,-117.2207 z m -107.08204,68.24218 -23.10937,14.72461 c -1.0667,19.92063 -1.95117,34.25391 -1.95117,34.25391 0,2.45439 1.9753,4.42969 4.42968,4.42969 h 18.58594 c 2.45439,0 4.51889,-1.97693 4.42969,-4.42969 0,0 -1.17638,-21.63764 -2.38477,-48.97852 z"
           transform="matrix(0.26458341,0,0,0.26458341,196.72378,150.83749)"
           sodipodi:nodetypes="cccsscccccsscc" />
      </g>
      <path
         id="rect1051"
         style="opacity:1;fill:#2f80ed;fill-opacity:1;stroke-width:13.729;stroke-miterlimit:4;stroke-dasharray:none"
         d="m 375.49414,146.16016 c 0.10983,0.61482 0.39252,1.20501 0.87109,1.68359 0,0 49.35986,43.57026 72.61915,66.83594 23.10514,23.11286 66.375,72.1582 66.375,72.1582 1.19836,1.30289 3.26782,1.25175 4.51953,0 l 9.47851,-9.47851 c 1.25171,-1.25172 1.25171,-3.26586 0,-4.51758 0,0 -48.68042,-43.61047 -71.7793,-66.70313 -16.05569,-16.05034 -41.58635,-43.97171 -56.09374,-59.97851 z"
         transform="matrix(0.26458341,0,0,0.26458341,-1.0307106e-4,0)" />
    </g>
  </g>
</svg>
